<svg xmlns="http://www.w3.org/2000/svg" viewBox="0 0 120 120" role="img" aria-labelledby="smartfitLogoTitle">
  <title id="smartfitLogoTitle">SmartFit logo</title>
  <defs>
    <linearGradient id="lg" x1="0" y1="0" x2="1" y2="1">
      <stop offset="0%" stop-color="#7c3aed" />
      <stop offset="100%" stop-color="#c084fc" />
    </linearGradient>
    <filter id="shadow" x="-20%" y="-20%" width="140%" height="140%">
      <feDropShadow dx="0" dy="5" stdDeviation="8" flood-color="#7c3aed" flood-opacity="0.2" />
    </filter>
  </defs>
  <circle cx="60" cy="60" r="56" fill="url(#lg)" filter="url(#shadow)" />
  <path d="M38 34c10-8 27-6 35 3 7 9 4 22-6 30-11 9-28 8-33 18-5 9 1 22 12 25" fill="none" stroke="#ffffff" stroke-width="10" stroke-linecap="round" />
  <path d="M47 42c8-3 19-2 24 2 6 4 7 11 4 16-4 7-13 12-21 10" fill="none" stroke="#f8f7ff" stroke-width="10" stroke-linecap="round" />
  <circle cx="62" cy="62" r="8" fill="#faf5ff" />
</svg>
